<mxfile host="Electron" modified="2023-08-31T00:26:13.606Z" agent="Mozilla/5.0 (X11; Linux x86_64) AppleWebKit/537.36 (KHTML, like Gecko) draw.io/21.6.8 Chrome/114.0.5735.289 Electron/25.5.0 Safari/537.36" etag="D9b0k9FM5Kn8QDAx7H2s" version="21.6.8" type="device">
  <diagram id="4mdgIPlBegKgzQdD6meI" name="ServiceBus-High-Level">
    <mxGraphModel dx="2049" dy="2287" grid="1" gridSize="10" guides="1" tooltips="1" connect="1" arrows="1" fold="1" page="1" pageScale="1" pageWidth="850" pageHeight="1100" math="0" shadow="0">
      <root>
        <mxCell id="0" />
        <mxCell id="1" parent="0" />
        <mxCell id="MIT6gQoDaKsgvTAdr3W3-1" value="" style="rounded=1;whiteSpace=wrap;html=1;dashed=1;" parent="1" vertex="1">
          <mxGeometry x="360" y="-510" width="1266" height="1040" as="geometry" />
        </mxCell>
        <mxCell id="MIT6gQoDaKsgvTAdr3W3-2" value="" style="rounded=1;whiteSpace=wrap;html=1;dashed=1;dashPattern=12 12;rotation=90;" parent="1" vertex="1">
          <mxGeometry x="669.17" y="430" width="693.5" height="940" as="geometry" />
        </mxCell>
        <mxCell id="MIT6gQoDaKsgvTAdr3W3-3" value="" style="rounded=1;whiteSpace=wrap;html=1;fillColor=#d5e8d4;strokeColor=#82b366;" parent="1" vertex="1">
          <mxGeometry x="823.49" y="-340" width="311" height="210" as="geometry" />
        </mxCell>
        <mxCell id="MIT6gQoDaKsgvTAdr3W3-4" value="" style="rounded=1;whiteSpace=wrap;html=1;fillColor=#dae8fc;strokeColor=#6c8ebf;" parent="1" vertex="1">
          <mxGeometry x="560" y="60" width="863" height="310" as="geometry" />
        </mxCell>
        <mxCell id="MIT6gQoDaKsgvTAdr3W3-5" value="" style="rounded=1;whiteSpace=wrap;html=1;fillColor=#fff2cc;strokeColor=#d6b656;rotation=90;" parent="1" vertex="1">
          <mxGeometry x="874.91" y="-87.07000000000001" width="219.34" height="591.53" as="geometry" />
        </mxCell>
        <mxCell id="MIT6gQoDaKsgvTAdr3W3-7" value="subscriptions" style="shape=cylinder3;whiteSpace=wrap;html=1;boundedLbl=1;backgroundOutline=1;size=15;" parent="1" vertex="1">
          <mxGeometry x="870.87" y="-280" width="90" height="60" as="geometry" />
        </mxCell>
        <mxCell id="MIT6gQoDaKsgvTAdr3W3-8" value="Subscriptions" style="shape=cylinder3;whiteSpace=wrap;html=1;boundedLbl=1;backgroundOutline=1;size=15;" parent="1" vertex="1">
          <mxGeometry x="720" y="178.7" width="85" height="60" as="geometry" />
        </mxCell>
        <mxCell id="MIT6gQoDaKsgvTAdr3W3-9" value="ioc" style="shape=cylinder3;whiteSpace=wrap;html=1;boundedLbl=1;backgroundOutline=1;size=15;" parent="1" vertex="1">
          <mxGeometry x="1010.63" y="-280" width="89.37" height="60" as="geometry" />
        </mxCell>
        <mxCell id="MIT6gQoDaKsgvTAdr3W3-10" value="ioc" style="shape=cylinder3;whiteSpace=wrap;html=1;boundedLbl=1;backgroundOutline=1;size=15;" parent="1" vertex="1">
          <mxGeometry x="933.37" y="178.71" width="85" height="62" as="geometry" />
        </mxCell>
        <mxCell id="MIT6gQoDaKsgvTAdr3W3-13" value="" style="image;aspect=fixed;html=1;points=[];align=center;fontSize=12;image=img/lib/azure2/internet_of_things/Logic_Apps.svg;" parent="1" vertex="1">
          <mxGeometry x="951.87" y="402" width="48" height="48" as="geometry" />
        </mxCell>
        <mxCell id="MIT6gQoDaKsgvTAdr3W3-14" value="" style="endArrow=classic;html=1;rounded=0;" parent="1" source="MIT6gQoDaKsgvTAdr3W3-10" target="MIT6gQoDaKsgvTAdr3W3-13" edge="1">
          <mxGeometry width="50" height="50" relative="1" as="geometry">
            <mxPoint x="535" y="50" as="sourcePoint" />
            <mxPoint x="190" y="740" as="targetPoint" />
          </mxGeometry>
        </mxCell>
        <mxCell id="MIT6gQoDaKsgvTAdr3W3-15" value="API" style="ellipse;shape=cloud;whiteSpace=wrap;html=1;" parent="1" vertex="1">
          <mxGeometry x="1308.75" y="-230" width="120" height="80" as="geometry" />
        </mxCell>
        <mxCell id="MIT6gQoDaKsgvTAdr3W3-16" value="" style="shape=flexArrow;endArrow=classic;startArrow=classic;html=1;rounded=0;" parent="1" source="MIT6gQoDaKsgvTAdr3W3-15" edge="1">
          <mxGeometry width="100" height="100" relative="1" as="geometry">
            <mxPoint x="910" y="480" as="sourcePoint" />
            <mxPoint x="1140" y="-190" as="targetPoint" />
            <Array as="points" />
          </mxGeometry>
        </mxCell>
        <mxCell id="MIT6gQoDaKsgvTAdr3W3-19" value="" style="endArrow=classic;startArrow=classic;html=1;rounded=0;entryX=0.492;entryY=0.972;entryDx=0;entryDy=0;entryPerimeter=0;exitX=0.5;exitY=0;exitDx=0;exitDy=0;exitPerimeter=0;" parent="1" source="MIT6gQoDaKsgvTAdr3W3-9" target="MIT6gQoDaKsgvTAdr3W3-33" edge="1">
          <mxGeometry width="50" height="50" relative="1" as="geometry">
            <mxPoint x="1498" y="-160" as="sourcePoint" />
            <mxPoint x="1116" y="-238" as="targetPoint" />
          </mxGeometry>
        </mxCell>
        <mxCell id="MIT6gQoDaKsgvTAdr3W3-20" value="" style="endArrow=classic;startArrow=classic;html=1;rounded=0;entryX=0.5;entryY=0;entryDx=0;entryDy=0;entryPerimeter=0;exitX=0.437;exitY=0.99;exitDx=0;exitDy=0;exitPerimeter=0;" parent="1" source="MIT6gQoDaKsgvTAdr3W3-33" target="MIT6gQoDaKsgvTAdr3W3-7" edge="1">
          <mxGeometry width="50" height="50" relative="1" as="geometry">
            <mxPoint x="1121.0399999999995" y="-224.96000000000004" as="sourcePoint" />
            <mxPoint x="1548" y="-210" as="targetPoint" />
          </mxGeometry>
        </mxCell>
        <mxCell id="MIT6gQoDaKsgvTAdr3W3-21" value="LA Send for Inspection" style="text;html=1;strokeColor=none;fillColor=none;align=center;verticalAlign=middle;whiteSpace=wrap;rounded=0;" parent="1" vertex="1">
          <mxGeometry x="1508" y="201.71" width="90" height="30" as="geometry" />
        </mxCell>
        <mxCell id="MIT6gQoDaKsgvTAdr3W3-22" value="LA Subscribe/Unsubscribe" style="text;html=1;strokeColor=none;fillColor=none;align=center;verticalAlign=middle;whiteSpace=wrap;rounded=0;" parent="1" vertex="1">
          <mxGeometry x="439" y="148.7" width="90" height="30" as="geometry" />
        </mxCell>
        <mxCell id="MIT6gQoDaKsgvTAdr3W3-23" value="LA for IOC Relay" style="text;html=1;strokeColor=none;fillColor=none;align=center;verticalAlign=middle;whiteSpace=wrap;rounded=0;" parent="1" vertex="1">
          <mxGeometry x="1001.5" y="411" width="90" height="30" as="geometry" />
        </mxCell>
        <mxCell id="MIT6gQoDaKsgvTAdr3W3-24" value="" style="sketch=0;pointerEvents=1;shadow=0;dashed=0;html=1;strokeColor=none;fillColor=#505050;labelPosition=center;verticalLabelPosition=bottom;outlineConnect=0;verticalAlign=top;align=center;shape=mxgraph.office.clouds.office_365;" parent="1" vertex="1">
          <mxGeometry x="941" y="754.5" width="101" height="61" as="geometry" />
        </mxCell>
        <mxCell id="MIT6gQoDaKsgvTAdr3W3-25" value="User" style="html=1;whiteSpace=wrap;strokeColor=none;fillColor=#0079D6;labelPosition=center;verticalLabelPosition=middle;verticalAlign=top;align=center;fontSize=12;outlineConnect=0;spacingTop=-6;fontColor=#FFFFFF;sketch=0;shape=mxgraph.sitemap.user;" parent="1" vertex="1">
          <mxGeometry x="931.5" y="1050" width="120" height="70" as="geometry" />
        </mxCell>
        <mxCell id="MIT6gQoDaKsgvTAdr3W3-26" value="" style="html=1;verticalLabelPosition=bottom;align=center;labelBackgroundColor=#ffffff;verticalAlign=top;strokeWidth=2;strokeColor=#0080F0;shadow=0;dashed=0;shape=mxgraph.ios7.icons.mail;" parent="1" vertex="1">
          <mxGeometry x="965.42" y="910" width="47" height="30" as="geometry" />
        </mxCell>
        <mxCell id="MIT6gQoDaKsgvTAdr3W3-27" value="" style="sketch=0;pointerEvents=1;shadow=0;dashed=0;html=1;strokeColor=none;fillColor=#505050;labelPosition=center;verticalLabelPosition=bottom;verticalAlign=top;outlineConnect=0;align=center;shape=mxgraph.office.concepts.attachment;" parent="1" vertex="1">
          <mxGeometry x="1004.92" y="916.5" width="22" height="44" as="geometry" />
        </mxCell>
        <mxCell id="MIT6gQoDaKsgvTAdr3W3-29" value="mailto: bobhoss@delgado.com" style="text;html=1;strokeColor=none;fillColor=none;align=center;verticalAlign=middle;whiteSpace=wrap;rounded=0;" parent="1" vertex="1">
          <mxGeometry x="944.92" y="970" width="88" height="30" as="geometry" />
        </mxCell>
        <mxCell id="MIT6gQoDaKsgvTAdr3W3-30" value="" style="endArrow=classic;html=1;rounded=0;" parent="1" target="MIT6gQoDaKsgvTAdr3W3-24" edge="1">
          <mxGeometry width="50" height="50" relative="1" as="geometry">
            <mxPoint x="992" y="920" as="sourcePoint" />
            <mxPoint x="1157" y="1060" as="targetPoint" />
          </mxGeometry>
        </mxCell>
        <mxCell id="MIT6gQoDaKsgvTAdr3W3-31" value="Subscription Sends Notification" style="text;html=1;strokeColor=none;fillColor=none;align=center;verticalAlign=middle;whiteSpace=wrap;rounded=0;" parent="1" vertex="1">
          <mxGeometry x="1170" y="659.25" width="60" height="30" as="geometry" />
        </mxCell>
        <mxCell id="MIT6gQoDaKsgvTAdr3W3-33" value="" style="image;aspect=fixed;html=1;points=[];align=center;fontSize=12;image=img/lib/azure2/general/Management_Portal.svg;" parent="1" vertex="1">
          <mxGeometry x="936.5" y="-450" width="85" height="68" as="geometry" />
        </mxCell>
        <mxCell id="MIT6gQoDaKsgvTAdr3W3-36" value="Azure&amp;nbsp; Event Hub" style="text;html=1;strokeColor=none;fillColor=none;align=center;verticalAlign=middle;whiteSpace=wrap;rounded=0;" parent="1" vertex="1">
          <mxGeometry x="540" y="1.2434497875801753e-14" width="70" height="30" as="geometry" />
        </mxCell>
        <mxCell id="MIT6gQoDaKsgvTAdr3W3-37" value="Mail" style="shape=cylinder3;whiteSpace=wrap;html=1;boundedLbl=1;backgroundOutline=1;size=15;" parent="1" vertex="1">
          <mxGeometry x="1162.75" y="178.7" width="86" height="60" as="geometry" />
        </mxCell>
        <mxCell id="MIT6gQoDaKsgvTAdr3W3-39" value="" style="endArrow=classic;html=1;rounded=0;entryX=0.5;entryY=0;entryDx=0;entryDy=0;entryPerimeter=0;exitX=0.5;exitY=1;exitDx=0;exitDy=0;" parent="1" source="MIT6gQoDaKsgvTAdr3W3-3" target="MIT6gQoDaKsgvTAdr3W3-10" edge="1">
          <mxGeometry width="50" height="50" relative="1" as="geometry">
            <mxPoint x="984" y="-80" as="sourcePoint" />
            <mxPoint x="630" y="180" as="targetPoint" />
          </mxGeometry>
        </mxCell>
        <mxCell id="MIT6gQoDaKsgvTAdr3W3-40" value="Shovel to IOC Queue" style="text;html=1;strokeColor=none;fillColor=none;align=center;verticalAlign=middle;whiteSpace=wrap;rounded=0;rotation=-90;" parent="1" vertex="1">
          <mxGeometry x="946" y="-30" width="120" height="30" as="geometry" />
        </mxCell>
        <mxCell id="MIT6gQoDaKsgvTAdr3W3-41" value="" style="image;sketch=0;aspect=fixed;html=1;points=[];align=center;fontSize=12;image=img/lib/mscae/Azure_Sentinel.svg;" parent="1" vertex="1">
          <mxGeometry x="823.4899999999999" y="640" width="70.4" height="80" as="geometry" />
        </mxCell>
        <mxCell id="MIT6gQoDaKsgvTAdr3W3-42" value="&lt;font style=&quot;font-size: 16px;&quot;&gt;UC Rabbit MQ&lt;/font&gt;" style="text;html=1;strokeColor=none;fillColor=none;align=center;verticalAlign=middle;whiteSpace=wrap;rounded=0;" parent="1" vertex="1">
          <mxGeometry x="922.5" y="-210" width="113" height="30" as="geometry" />
        </mxCell>
        <mxCell id="MIT6gQoDaKsgvTAdr3W3-43" value="" style="endArrow=classic;startArrow=classic;html=1;rounded=0;" parent="1" target="MIT6gQoDaKsgvTAdr3W3-24" edge="1">
          <mxGeometry width="50" height="50" relative="1" as="geometry">
            <mxPoint x="490" y="250" as="sourcePoint" />
            <mxPoint x="1641" y="300" as="targetPoint" />
            <Array as="points">
              <mxPoint x="490" y="540" />
              <mxPoint x="490" y="785" />
            </Array>
          </mxGeometry>
        </mxCell>
        <mxCell id="MIT6gQoDaKsgvTAdr3W3-45" value="&lt;font style=&quot;font-size: 24px;&quot;&gt;Customer Aure Tenant&lt;/font&gt;" style="text;html=1;strokeColor=none;fillColor=none;align=center;verticalAlign=middle;whiteSpace=wrap;rounded=0;" parent="1" vertex="1">
          <mxGeometry x="894.62" y="1290" width="162.5" height="40" as="geometry" />
        </mxCell>
        <mxCell id="MIT6gQoDaKsgvTAdr3W3-46" value="Azure Sentinel" style="text;html=1;strokeColor=none;fillColor=none;align=center;verticalAlign=middle;whiteSpace=wrap;rounded=0;" parent="1" vertex="1">
          <mxGeometry x="763.49" y="659.25" width="60" height="30" as="geometry" />
        </mxCell>
        <mxCell id="MIT6gQoDaKsgvTAdr3W3-47" value="" style="endArrow=classic;html=1;rounded=0;exitX=0.481;exitY=1.055;exitDx=0;exitDy=0;exitPerimeter=0;" parent="1" source="MIT6gQoDaKsgvTAdr3W3-41" target="MIT6gQoDaKsgvTAdr3W3-24" edge="1">
          <mxGeometry width="50" height="50" relative="1" as="geometry">
            <mxPoint x="437" y="980" as="sourcePoint" />
            <mxPoint x="487" y="930" as="targetPoint" />
          </mxGeometry>
        </mxCell>
        <mxCell id="MIT6gQoDaKsgvTAdr3W3-48" value="&lt;font style=&quot;font-size: 16px;&quot;&gt;Queues&lt;/font&gt;" style="text;html=1;strokeColor=none;fillColor=none;align=center;verticalAlign=middle;whiteSpace=wrap;rounded=0;rotation=0;" parent="1" vertex="1">
          <mxGeometry x="1143.25" y="96.69999999999999" width="125" height="52" as="geometry" />
        </mxCell>
        <mxCell id="MIT6gQoDaKsgvTAdr3W3-49" value="" style="endArrow=classic;html=1;rounded=0;" parent="1" source="MIT6gQoDaKsgvTAdr3W3-24" edge="1">
          <mxGeometry width="50" height="50" relative="1" as="geometry">
            <mxPoint x="437" y="800" as="sourcePoint" />
            <mxPoint x="1094.2499999999995" y="706.2499999999995" as="targetPoint" />
          </mxGeometry>
        </mxCell>
        <mxCell id="MIT6gQoDaKsgvTAdr3W3-50" value="" style="endArrow=classic;html=1;rounded=0;exitX=0.382;exitY=1.014;exitDx=0;exitDy=0;exitPerimeter=0;" parent="1" source="MIT6gQoDaKsgvTAdr3W3-3" target="MIT6gQoDaKsgvTAdr3W3-8" edge="1">
          <mxGeometry width="50" height="50" relative="1" as="geometry">
            <mxPoint x="940" y="-120" as="sourcePoint" />
            <mxPoint x="900" y="-30" as="targetPoint" />
          </mxGeometry>
        </mxCell>
        <mxCell id="MIT6gQoDaKsgvTAdr3W3-51" value="UC Portal" style="text;html=1;strokeColor=none;fillColor=none;align=center;verticalAlign=middle;whiteSpace=wrap;rounded=0;" parent="1" vertex="1">
          <mxGeometry x="1021.5" y="-440" width="60" height="30" as="geometry" />
        </mxCell>
        <mxCell id="MIT6gQoDaKsgvTAdr3W3-52" value="Shovel to Subscriptions Queue" style="text;html=1;strokeColor=none;fillColor=none;align=center;verticalAlign=middle;whiteSpace=wrap;rounded=0;rotation=-60;" parent="1" vertex="1">
          <mxGeometry x="774.55" y="-50" width="177.32" height="30" as="geometry" />
        </mxCell>
        <mxCell id="MIT6gQoDaKsgvTAdr3W3-53" value="&lt;font style=&quot;font-size: 24px;&quot;&gt;UC Azure Tenant&lt;/font&gt;" style="text;html=1;strokeColor=none;fillColor=none;align=center;verticalAlign=middle;whiteSpace=wrap;rounded=0;" parent="1" vertex="1">
          <mxGeometry x="870.87" y="-540" width="210" height="30" as="geometry" />
        </mxCell>
        <mxCell id="MIT6gQoDaKsgvTAdr3W3-54" value="" style="endArrow=classic;html=1;rounded=0;entryX=1.006;entryY=0.542;entryDx=0;entryDy=0;entryPerimeter=0;exitX=0.5;exitY=0;exitDx=0;exitDy=0;" parent="1" source="MIT6gQoDaKsgvTAdr3W3-45" target="MIT6gQoDaKsgvTAdr3W3-2" edge="1">
          <mxGeometry width="50" height="50" relative="1" as="geometry">
            <mxPoint x="1477" y="1002" as="sourcePoint" />
            <mxPoint x="677" y="730" as="targetPoint" />
          </mxGeometry>
        </mxCell>
        <mxCell id="MIT6gQoDaKsgvTAdr3W3-67" value="" style="endArrow=classic;html=1;rounded=0;" parent="1" source="MIT6gQoDaKsgvTAdr3W3-13" target="MIT6gQoDaKsgvTAdr3W3-41" edge="1">
          <mxGeometry width="50" height="50" relative="1" as="geometry">
            <mxPoint x="994" y="252" as="sourcePoint" />
            <mxPoint x="994" y="412" as="targetPoint" />
          </mxGeometry>
        </mxCell>
        <mxCell id="MIT6gQoDaKsgvTAdr3W3-70" value="" style="endArrow=classic;html=1;rounded=0;entryX=0.96;entryY=0.7;entryDx=0;entryDy=0;entryPerimeter=0;" parent="1" source="MIT6gQoDaKsgvTAdr3W3-17" target="MIT6gQoDaKsgvTAdr3W3-15" edge="1">
          <mxGeometry width="50" height="50" relative="1" as="geometry">
            <mxPoint x="840" y="270" as="sourcePoint" />
            <mxPoint x="890" y="220" as="targetPoint" />
            <Array as="points">
              <mxPoint x="1480" y="-174" />
            </Array>
          </mxGeometry>
        </mxCell>
        <mxCell id="MIT6gQoDaKsgvTAdr3W3-71" value="" style="endArrow=classic;html=1;rounded=0;entryX=0.5;entryY=1;entryDx=0;entryDy=0;entryPerimeter=0;" parent="1" target="MIT6gQoDaKsgvTAdr3W3-37" edge="1">
          <mxGeometry width="50" height="50" relative="1" as="geometry">
            <mxPoint x="1134.4954962610464" y="645.75" as="sourcePoint" />
            <mxPoint x="890" y="220" as="targetPoint" />
          </mxGeometry>
        </mxCell>
        <mxCell id="MIT6gQoDaKsgvTAdr3W3-76" value="" style="endArrow=classic;html=1;rounded=0;exitX=1;exitY=0;exitDx=0;exitDy=37.50000000000001;exitPerimeter=0;" parent="1" source="MIT6gQoDaKsgvTAdr3W3-37" target="MIT6gQoDaKsgvTAdr3W3-17" edge="1">
          <mxGeometry width="50" height="50" relative="1" as="geometry">
            <mxPoint x="1256" y="209" as="sourcePoint" />
            <mxPoint x="1550" y="210" as="targetPoint" />
          </mxGeometry>
        </mxCell>
        <mxCell id="MIT6gQoDaKsgvTAdr3W3-17" value="" style="image;aspect=fixed;html=1;points=[];align=center;fontSize=12;image=img/lib/azure2/internet_of_things/Logic_Apps.svg;" parent="1" vertex="1">
          <mxGeometry x="1460" y="192.71000000000004" width="48" height="48" as="geometry" />
        </mxCell>
        <mxCell id="MIT6gQoDaKsgvTAdr3W3-77" value="" style="endArrow=classic;html=1;rounded=0;exitX=0;exitY=0;exitDx=0;exitDy=37.5;exitPerimeter=0;" parent="1" source="MIT6gQoDaKsgvTAdr3W3-8" target="MIT6gQoDaKsgvTAdr3W3-11" edge="1">
          <mxGeometry width="50" height="50" relative="1" as="geometry">
            <mxPoint x="720" y="216" as="sourcePoint" />
            <mxPoint x="380" y="216" as="targetPoint" />
            <Array as="points" />
          </mxGeometry>
        </mxCell>
        <mxCell id="MIT6gQoDaKsgvTAdr3W3-11" value="" style="image;aspect=fixed;html=1;points=[];align=center;fontSize=12;image=img/lib/azure2/internet_of_things/Logic_Apps.svg;" parent="1" vertex="1">
          <mxGeometry x="460" y="192.71" width="48" height="48" as="geometry" />
        </mxCell>
        <mxCell id="oYPpc65fc04HTXq4InNN-1" value="" style="image;sketch=0;aspect=fixed;html=1;points=[];align=center;fontSize=12;image=img/lib/mscae/Event_Hubs.svg;" vertex="1" parent="1">
          <mxGeometry x="551" y="40" width="48" height="50" as="geometry" />
        </mxCell>
        <mxCell id="oYPpc65fc04HTXq4InNN-2" value="" style="image;sketch=0;aspect=fixed;html=1;points=[];align=center;fontSize=12;image=img/lib/mscae/Notification.svg;" vertex="1" parent="1">
          <mxGeometry x="1100" y="655" width="50" height="50" as="geometry" />
        </mxCell>
      </root>
    </mxGraphModel>
  </diagram>
</mxfile>
